<svg xmlns="http://www.w3.org/2000/svg" width="19" height="19" viewBox="0 0 19 19" xmlns:xlink="http://www.w3.org/1999/xlink">
  <defs>
    <path id="b" d="M8.96674525,5.37061556 L8.96674525,6.43712507 L10.0332548,6.43712507 L11.0997643,6.43712507 L12.1662738,6.43712507 L12.1662738,7.50363458 L12.1662738,8.57014409 L12.1662738,9.6366536 L12.1662738,10.7031631 L12.1662738,11.7696726 L12.1662738,12.8361821 L11.0997643,12.8361821 L10.0332548,12.8361821 L8.96674525,12.8361821 L7.90023574,12.8361821 L6.83372623,12.8361821 L6.83372623,11.7696726 L6.83372623,10.7031631 L6.83372623,9.6366536 L6.83372623,8.57014409 L6.83372623,7.50363458 L6.83372623,6.43712507 L6.83372623,5.37061556 L8.96674525,5.37061556 Z M10.0332548,11.7696726 L10.0332548,10.7031631 L10.0332548,9.6366536 L10.0332548,8.57014409 L10.0332548,7.50363458 L8.96674525,7.50363458 L8.96674525,8.57014409 L8.96674525,9.6366536 L8.96674525,10.7031631 L8.96674525,11.7696726 L10.0332548,11.7696726 Z"/>
    <filter id="a" width="200%" height="200%" x="-50%" y="-50%" filterUnits="objectBoundingBox">
      <feOffset in="SourceAlpha" result="shadowOffsetOuter1"/>
      <feColorMatrix values="0 0 0 0 0.894424957 0 0 0 0 0.48242606 0 0 0 0 0 0 0 0 1 0" in="shadowOffsetOuter1"/>
    </filter>
  </defs>
  <g fill="none" fill-rule="evenodd">
    <rect width="11.4" height="1.9" x="3.8" fill="#FFD93F"/>
    <rect width="11.4" height="1.9" x="3.8" y="17.1" fill="#FFD93F"/>
    <rect width="15.2" height="15.2" x="1.9" y="1.9" fill="#FF8E01"/>
    <rect width="1.9" height="11.4" y="3.8" fill="#FFD93F"/>
    <rect width="1.9" height="1.9" x="1.9" y="1.9" fill="#FFD93F" opacity=".659"/>
    <polyline fill="#FFA402" points="3.8 15.2 3.8 3.8 3.8 3.8 15.2 3.8"/>
    <use fill="black" filter="url(#a)" xlink:href="#b"/>
    <use fill="#FFD93F" xlink:href="#b"/>
    <rect width="1.9" height="1.9" x="1.9" y="15.2" fill="#FFD93F" opacity=".659"/>
    <rect width="1.9" height="11.4" x="17.1" y="3.8" fill="#FFD93F"/>
    <rect width="1.9" height="1.9" x="15.2" y="1.9" fill="#FFD93F" opacity=".659"/>
    <rect width="1.9" height="1.9" x="15.2" y="15.2" fill="#FFD93F" opacity=".659"/>
  </g>
</svg>
